<?xml version="1.0" encoding="iso-8859-1"?>
<!-- Generator: Adobe Illustrator 19.0.0, SVG Export Plug-In . SVG Version: 6.00 Build 0)  -->
<svg xmlns="http://www.w3.org/2000/svg" xmlns:xlink="http://www.w3.org/1999/xlink" version="1.1" id="Layer_1" x="0px" y="0px" viewBox="0 0 512 512" style="enable-background:new 0 0 512 512;" xml:space="preserve" width="512px" height="512px">
<g>
	<g>
		<rect x="487.747" y="247.916" width="16.168" height="16.168" fill="#274782"/>
	</g>
</g>
<g>
	<g>
		<polygon points="471.579,247.916 432.581,247.916 438.476,238.847 424.918,230.037 407.336,257.085 433.526,283.274     444.958,271.842 437.201,264.084 471.579,264.084   " fill="#274782"/>
	</g>
</g>
<g>
	<g>
		<rect x="8.084" y="247.916" width="16.168" height="16.168" fill="#274782"/>
	</g>
</g>
<g>
	<g>
		<polygon points="78.474,228.726 67.042,240.158 74.799,247.916 40.421,247.916 40.421,264.084 74.799,264.084 67.042,271.842     78.474,283.274 105.748,256   " fill="#274782"/>
	</g>
</g>
<g>
	<g>
		<rect x="247.916" y="8.084" width="16.168" height="16.168" fill="#274782"/>
	</g>
</g>
<g>
	<g>
		<polygon points="271.842,67.042 264.084,74.799 264.084,40.421 247.916,40.421 247.916,74.799 240.158,67.042 228.726,78.474     256,105.748 283.274,78.474   " fill="#274782"/>
	</g>
</g>
<g>
	<g>
		<rect x="247.916" y="487.747" width="16.168" height="16.168" fill="#274782"/>
	</g>
</g>
<g>
	<g>
		<polygon points="256,406.252 228.726,433.526 240.158,444.958 247.916,437.201 247.916,471.579 264.084,471.579 264.084,437.201     271.842,444.958 283.274,433.526   " fill="#274782"/>
	</g>
</g>
<g>
	<g>
		<path d="M377.263,193.482v54.434H327.68v22.387l3.667,2.392c6.141,4.005,9.807,10.76,9.807,18.068    c0,11.887-9.671,21.558-21.558,21.558c-11.887,0-21.558-9.671-21.558-21.558c0-7.309,3.666-14.063,9.806-18.069l3.668-2.392    v-22.386h-47.427v-28.568c6.977,6.855,16.394,10.783,26.408,10.783c20.802,0,37.726-16.924,37.726-37.726    c0-20.802-16.924-37.726-37.726-37.726c-10.016,0-19.432,3.927-26.408,10.782v-30.723h30.72v-16.168H193.482v16.168h54.434v49.583    h22.116l2.392-3.668c4.005-6.14,10.76-9.806,18.069-9.806c11.887,0,21.558,9.671,21.558,21.558s-9.671,21.558-21.558,21.558    c-7.308,0-14.063-3.666-18.069-9.807l-2.392-3.667h-22.116v47.427H219.08c7.02-7.002,11.051-16.534,11.051-26.678    c0-20.802-16.924-37.726-37.726-37.726c-20.802,0-37.726,16.924-37.726,37.726c0,10.145,4.029,19.675,11.051,26.678h-30.992    V215.04h-16.168v103.478h16.168v-54.434h49.583v-22.386l-3.667-2.392c-6.141-4.005-9.807-10.76-9.807-18.069    c0-11.887,9.671-21.558,21.558-21.558s21.558,9.671,21.558,21.558c0,7.309-3.666,14.063-9.806,18.069l-3.668,2.392v22.386h47.427    v28.568c-6.977-6.855-16.394-10.783-26.408-10.783c-20.802,0-37.726,16.924-37.726,37.726c0,20.802,16.924,37.726,37.726,37.726    c10.016,0,19.432-3.927,26.408-10.782v30.723h-30.72v16.168h101.322v-16.168h-54.434V327.68h-22.116l-2.392,3.668    c-4.005,6.14-10.76,9.806-18.069,9.806c-11.887,0-21.558-9.671-21.558-21.558c0-11.887,9.671-21.558,21.558-21.558    c7.308,0,14.063,3.666,18.069,9.807l2.392,3.667h22.116v-47.427h28.836c-7.02,7.002-11.051,16.534-11.051,26.678    c0,20.802,16.924,37.726,37.726,37.726c20.802,0,37.726-16.924,37.726-37.726c0-10.144-4.03-19.675-11.051-26.678h30.992v32.876    h16.168V193.482H377.263z" fill="#274782"/>
	</g>
</g>
<g>
	<g>
		<polygon points="135.815,366.484 135.815,334.147 90.374,334.147 50.491,366.484 8.084,366.484 8.084,382.653 56.222,382.653     96.104,350.316 119.646,350.316 119.646,366.484 99.233,366.484 99.233,382.653 184.32,382.653 184.32,398.394 137.432,398.394     137.432,414.563 184.32,414.563 184.32,430.731 137.432,430.731 137.432,446.899 184.32,446.899 184.32,463.068 137.432,463.068     137.432,479.236 184.32,479.236 184.32,495.832 75.419,495.832 57.094,474.274 8.084,474.274 8.084,490.442 49.618,490.442     67.943,512 200.488,512 200.488,366.484   " fill="#274782"/>
	</g>
</g>
<g>
	<g>
		<polygon points="145.516,50.491 145.516,8.084 129.347,8.084 129.347,56.222 161.684,96.104 161.684,120.724 145.516,120.724     145.516,100.311 129.347,100.311 129.347,184.32 113.606,184.32 113.606,137.432 97.437,137.432 97.437,184.32 81.269,184.32     81.269,137.432 65.101,137.432 65.101,184.32 48.932,184.32 48.932,137.432 32.764,137.432 32.764,184.32 16.168,184.32     16.168,75.419 37.726,57.094 37.726,8.084 21.558,8.084 21.558,49.618 0,67.943 0,200.488 145.516,200.488 145.516,136.893     177.853,136.893 177.853,90.374   " fill="#274782"/>
	</g>
</g>
<g>
	<g>
		<polygon points="366.484,311.512 366.484,379.419 334.147,379.419 334.147,421.626 366.484,461.509 366.484,503.916     382.653,503.916 382.653,455.778 350.316,415.896 350.316,395.587 366.484,395.587 366.484,412.767 382.653,412.767     382.653,327.68 398.394,327.68 398.394,374.568 414.563,374.568 414.563,327.68 430.731,327.68 430.731,374.568 446.899,374.568     446.899,327.68 463.068,327.68 463.068,374.568 479.236,374.568 479.236,327.68 495.832,327.68 495.832,436.581 474.274,454.906     474.274,503.916 490.442,503.916 490.442,462.382 512,444.057 512,311.512   " fill="#274782"/>
	</g>
</g>
<g>
	<g>
		<polygon points="436.581,16.168 454.906,37.726 503.916,37.726 503.916,21.558 462.382,21.558 444.057,0 311.512,0     311.512,145.516 377.263,145.516 377.263,177.853 421.626,177.853 461.509,145.516 503.916,145.516 503.916,129.347     455.778,129.347 415.896,161.684 393.432,161.684 393.432,145.516 411.689,145.516 411.689,129.347 327.68,129.347     327.68,113.606 374.568,113.606 374.568,97.437 327.68,97.437 327.68,81.269 374.568,81.269 374.568,65.101 327.68,65.101     327.68,48.932 374.568,48.932 374.568,32.764 327.68,32.764 327.68,16.168   " fill="#274782"/>
	</g>
</g>
<g>
</g>
<g>
</g>
<g>
</g>
<g>
</g>
<g>
</g>
<g>
</g>
<g>
</g>
<g>
</g>
<g>
</g>
<g>
</g>
<g>
</g>
<g>
</g>
<g>
</g>
<g>
</g>
<g>
</g>
</svg>
